<?xml version="1.0" standalone="no"?>
<!DOCTYPE svg PUBLIC "-//W3C//DTD SVG 20010904//EN"
 "http://www.w3.org/TR/2001/REC-SVG-20010904/DTD/svg10.dtd">
<svg version="1.0" xmlns="http://www.w3.org/2000/svg"
 width="419.000000pt" height="472.000000pt" viewBox="0 0 419.000000 472.000000"
 preserveAspectRatio="xMidYMid meet">

<g transform="translate(0.000000,472.000000) scale(0.100000,-0.100000)"
fill="#000000" stroke="none">
<path d="M1524 4570 c-259 -34 -476 -139 -649 -314 -187 -190 -281 -403 -292
-661 -6 -130 10 -253 45 -355 18 -51 22 -55 48 -53 l30 2 1 -252 c3 -589 71
-1114 178 -1370 15 -34 29 -69 31 -78 4 -11 -27 -35 -113 -89 -157 -97 -328
-226 -389 -293 -77 -84 -93 -174 -59 -324 17 -73 29 -95 59 -106 14 -6 17 -4
11 10 -10 27 -35 165 -35 193 0 17 12 0 40 -56 32 -67 55 -96 125 -162 133
-126 318 -209 409 -184 44 13 61 1 122 -83 l46 -65 295 0 295 0 -36 45 c-20
24 -50 72 -66 107 -31 67 -64 188 -50 188 4 0 1 28 -6 63 -8 34 -17 123 -20
197 -9 181 9 282 60 342 19 22 53 76 76 118 36 71 47 83 112 125 177 117 312
137 464 70 126 -56 141 -76 339 -470 122 -242 223 -421 232 -411 1 1 -27 56
-62 122 -36 65 -68 130 -72 143 -3 14 17 167 45 340 28 174 54 341 57 372 l6
56 121 -23 c66 -13 123 -26 126 -28 3 -3 -2 -34 -11 -68 -20 -73 -82 -422
-130 -723 -28 -177 -36 -210 -50 -209 -9 1 -14 -3 -11 -8 3 -5 12 -7 20 -4 9
3 14 -1 14 -14 0 -10 10 -31 23 -45 l22 -26 105 93 c310 274 448 473 535 774
89 306 98 604 34 1049 -52 360 -172 865 -283 1194 -20 58 -34 106 -33 108 7 6
147 -298 222 -482 149 -366 247 -749 276 -1075 11 -129 8 -461 -6 -540 -3 -19
-11 -62 -16 -95 -36 -215 -139 -474 -265 -660 -47 -71 -72 -103 -168 -215 -49
-59 -49 -59 -25 -57 48 3 191 163 292 327 117 190 201 429 243 691 21 128 24
505 5 654 -59 464 -219 953 -488 1490 -233 466 -347 626 -493 694 -47 22 -68
26 -145 25 -162 -2 -279 -41 -333 -112 -25 -32 -27 -33 -81 -27 -31 4 -81 19
-112 35 -183 95 -444 138 -665 110z m-55 -104 c-231 -91 -416 -221 -536 -380
-62 -82 -127 -222 -155 -332 -19 -76 -22 -116 -23 -272 l0 -184 -32 -13 c-18
-8 -35 -10 -38 -6 -10 17 -34 138 -40 208 -13 133 29 341 93 468 134 267 393
464 693 530 117 25 132 17 38 -19z m917 -145 c104 -60 224 -228 224 -312 -1
-32 -3 -30 -38 37 -53 99 -102 163 -184 239 -39 36 -67 65 -62 65 5 0 32 -13
60 -29z m325 -339 c9 -13 14 -33 12 -43 -4 -13 -1 -19 8 -17 18 4 63 -132 83
-253 25 -145 46 -433 46 -625 0 -146 -7 -255 -34 -524 -3 -25 -13 -127 -22
-228 -17 -174 -19 -183 -38 -180 -19 3 -21 9 -19 68 8 255 4 904 -6 1055 -15
228 -45 485 -70 598 -10 48 -15 87 -11 87 5 0 7 9 5 20 -2 11 0 18 6 15 5 -4
9 -12 9 -19 0 -7 7 -13 15 -13 20 0 19 2 -11 32 -14 15 -23 32 -20 41 8 20 28
14 47 -14z m-1283 -154 c64 -155 99 -283 136 -499 41 -239 42 -253 14 -271
-88 -57 -276 -54 -422 7 -30 13 -36 19 -25 26 8 5 27 9 42 9 43 0 101 35 138
82 19 24 37 45 41 46 14 6 8 24 -6 19 -21 -8 -149 23 -169 42 -17 15 -20 14
-32 -2 -11 -16 -16 -17 -34 -5 -18 11 -23 11 -30 0 -4 -7 -15 -10 -26 -6 -15
6 -17 4 -11 -19 5 -20 3 -25 -8 -21 -8 3 -17 1 -20 -5 -8 -13 21 -41 42 -41
11 0 22 -14 30 -40 18 -58 16 -63 -15 -55 -16 4 -54 10 -87 14 l-58 6 -4 44
c-2 24 -13 63 -24 88 l-19 44 25 9 c13 5 76 19 139 31 102 19 115 24 115 42 0
20 0 20 23 -1 21 -20 34 -22 151 -22 l128 0 -6 23 c-32 107 -56 219 -65 300
-13 118 -14 227 -2 227 5 0 23 -33 39 -72z m-283 -20 c-4 -40 -10 -151 -14
-247 l-6 -175 -30 -8 c-16 -4 -34 -3 -38 1 -12 12 8 244 28 327 16 67 54 174
62 174 3 0 2 -33 -2 -72z m239 -335 c21 -80 21 -83 -13 -83 -27 0 -29 3 -40
61 -12 58 -13 254 -2 309 3 14 13 -31 22 -101 10 -69 25 -153 33 -186z m1224
170 c-5 -102 -11 -145 -33 -213 -36 -111 -90 -217 -172 -337 -126 -186 -147
-218 -169 -263 l-22 -45 -7 38 c-14 74 11 133 155 360 145 228 214 385 236
540 12 85 17 50 12 -80z m-1041 -47 c60 -179 105 -378 149 -661 20 -123 27
-215 31 -395 10 -416 -34 -737 -143 -1051 -36 -104 -141 -319 -156 -319 -12 0
-10 6 17 45 69 103 142 395 180 720 22 195 31 670 16 887 -26 372 -75 658
-156 913 -22 68 34 -57 62 -139z m368 -86 c10 -12 7 -20 -20 -43 l-33 -27 -6
47 c-3 27 -8 73 -11 103 l-5 55 31 -60 c17 -33 37 -67 44 -75z m1255 -42 c37
-19 45 -28 44 -50 -3 -159 -3 -160 -21 -153 -10 3 -55 9 -101 12 l-83 6 6 81
c8 100 9 104 37 116 38 15 71 11 118 -12z m-1116 -19 c24 -19 26 -27 26 -93 0
-83 -23 -161 -71 -240 -44 -72 -78 -106 -108 -107 l-26 0 24 -12 c19 -9 30 -7
62 11 21 12 40 22 43 22 8 0 24 -62 31 -117 5 -42 11 -53 25 -53 10 0 23 13
30 30 7 17 16 30 19 30 13 0 60 -223 80 -380 11 -85 25 -171 31 -190 5 -19 10
-36 10 -37 0 -2 -9 -3 -20 -3 -21 0 -235 -58 -305 -83 l-40 -14 0 467 0 467
36 -4 c31 -5 41 0 73 32 31 31 37 43 34 73 -2 19 -8 37 -14 39 -7 2 -10 -6 -6
-22 3 -19 -3 -34 -24 -56 -30 -32 -47 -38 -38 -14 4 8 -1 26 -10 40 -21 32
-20 61 4 100 22 36 69 60 100 52 27 -7 25 12 -2 22 -21 7 -48 3 -88 -13 -22
-9 -60 -69 -60 -95 0 -12 -4 -19 -10 -16 -5 3 -10 21 -10 39 0 57 94 145 156
146 12 0 33 -9 48 -21z m594 -309 c28 -539 23 -980 -11 -1017 -19 -21 -23 -68
-7 -78 14 -9 12 -60 -5 -184 -21 -140 -67 -312 -81 -299 -2 3 -15 43 -28 89
-13 46 -39 127 -59 179 -19 52 -54 167 -77 254 -42 161 -58 204 -90 241 -12
15 -21 62 -34 187 -25 235 -23 239 154 493 103 149 153 234 191 328 17 44 25
54 30 40 3 -10 11 -115 17 -233z m-765 82 c7 -9 6 -18 -6 -30 -16 -15 -17 -13
-16 33 1 28 4 41 6 30 3 -11 10 -26 16 -33z m1167 18 c0 -5 -12 -10 -26 -10
-14 0 -33 -4 -43 -9 -10 -6 -23 -6 -31 -1 -18 11 -4 17 50 23 19 2 38 5 43 5
4 1 7 -2 7 -8z m-1776 -19 c19 -1 19 -1 0 -22 -24 -26 -87 -59 -114 -59 -17 0
-20 6 -20 43 0 24 2 46 5 49 3 2 28 1 57 -3 29 -4 62 -8 72 -8z m1948 -2 c20
-5 40 -14 43 -19 9 -15 -23 -24 -39 -11 -8 7 -38 21 -67 32 -51 19 -52 20 -14
14 22 -3 57 -11 77 -16z m-2102 -6 c0 -10 -5 -25 -10 -33 -7 -11 -10 -7 -10
18 0 17 5 32 10 32 6 0 10 -8 10 -17z m-353 -55 c-2 -13 -4 -3 -4 22 0 25 2
35 4 23 2 -13 2 -33 0 -45z m2290 26 c-3 -3 -12 -4 -19 -1 -8 3 -5 6 6 6 11 1
17 -2 13 -5z m-18 -48 c9 -10 8 -15 -4 -20 -10 -4 -15 1 -15 14 0 24 4 25 19
6z m140 -72 c2 -2 -17 -13 -42 -25 l-45 -22 -31 23 c-36 25 -34 31 17 46 33
10 75 1 101 -22z m-2151 1 l37 -14 -72 0 c-62 -1 -74 -4 -87 -23 -9 -12 -16
-37 -16 -56 0 -25 -10 -44 -45 -81 -25 -26 -45 -53 -45 -60 0 -7 -4 -9 -10 -6
-19 12 -10 62 19 101 15 22 34 58 41 79 7 22 22 50 34 63 18 20 27 23 64 17
24 -3 60 -12 80 -20z m2002 -65 c0 -4 -6 -10 -14 -13 -10 -4 -12 0 -9 14 5 18
23 18 23 -1z m-1424 -356 l7 -200 -74 -22 c-41 -12 -90 -25 -109 -29 -34 -6
-32 -4 30 43 112 85 87 126 -65 105 -44 -6 -96 -11 -115 -10 -32 0 -33 1 -11
10 13 5 54 16 92 25 62 14 100 36 86 50 -3 3 -47 -1 -98 -10 -118 -20 -135 -7
-37 28 248 91 263 110 79 100 -92 -5 -131 -4 -131 4 0 18 17 23 132 43 107 18
158 37 158 61 0 8 -47 10 -172 6 -95 -3 -204 -2 -243 1 -58 6 -40 8 100 11
165 5 172 6 236 37 40 18 76 44 90 63 l24 32 7 -74 c3 -40 10 -163 14 -274z
m1527 301 c20 -14 37 -28 37 -30 0 -3 -18 -14 -41 -25 -43 -23 -44 -23 -97 24
l-23 20 33 18 c43 23 47 22 91 -7z m-114 -79 c9 -11 8 -15 -5 -20 -23 -9 -24
-8 -24 14 0 23 13 26 29 6z m103 -63 c42 -29 41 -35 -14 -52 -33 -11 -40 -10
-72 11 -20 13 -36 26 -36 29 0 5 60 34 79 38 3 1 22 -11 43 -26z m-2204 -88
c4 -5 5 -36 4 -67 l-3 -57 51 -32 c28 -17 58 -45 66 -61 9 -17 32 -49 53 -72
21 -22 48 -56 60 -74 14 -20 35 -35 53 -39 38 -8 17 -23 -33 -23 -39 0 -65 21
-93 78 -9 17 -45 67 -79 110 -79 97 -90 115 -111 177 -9 28 -27 69 -41 93
l-24 43 45 -33 c25 -18 49 -37 52 -43z m-151 3 c-2 -13 -4 -3 -4 22 0 25 2 35
4 23 2 -13 2 -33 0 -45z m2233 12 c0 -5 -7 -10 -16 -10 -8 0 -12 5 -9 10 3 6
10 10 16 10 5 0 9 -4 9 -10z m105 -52 c19 -13 35 -26 35 -30 0 -3 -16 -12 -36
-18 -32 -11 -39 -9 -77 16 l-42 28 30 12 c42 18 50 17 90 -8z m-2300 -338 c33
-303 92 -614 145 -764 26 -73 30 -111 10 -89 -10 10 -62 179 -90 290 -48 194
-87 494 -94 743 -4 136 -4 144 4 60 5 -52 16 -160 25 -240z m2195 270 c9 -6
10 -10 3 -10 -6 0 -18 -3 -27 -6 -11 -4 -16 -1 -16 10 0 18 17 21 40 6z m97
-51 c40 -25 35 -33 -28 -50 -41 -11 -50 -10 -73 4 -14 10 -26 21 -26 25 0 6
48 28 89 41 2 0 19 -9 38 -20z m-32 -141 c24 -18 44 -36 45 -40 0 -4 -16 -12
-36 -17 -34 -9 -40 -8 -80 26 -48 39 -53 49 -26 56 38 10 55 6 97 -25z m-2044
-84 c37 -64 78 -101 122 -109 38 -7 171 29 297 81 120 50 117 49 131 23 18
-34 12 -130 -11 -175 -12 -23 -20 -58 -20 -90 0 -49 -2 -53 -41 -79 -65 -42
-125 -101 -215 -211 -45 -55 -101 -117 -124 -138 -41 -37 -86 -63 -94 -55 -3
2 -14 49 -25 104 -48 236 -90 728 -61 710 6 -4 24 -31 41 -61z m1944 26 c16
-17 16 -20 2 -20 -8 0 -22 -3 -31 -6 -12 -5 -16 0 -16 20 0 31 20 34 45 6z
m104 -80 l34 -29 -27 -11 c-44 -16 -75 -12 -112 17 -35 26 -35 37 1 46 45 11
72 5 104 -23z m-135 -49 c16 -18 16 -19 -11 -24 -34 -6 -34 -7 -26 21 7 27 15
28 37 3z m-1044 -35 c0 -2 -7 -17 -15 -32 l-15 -29 0 26 c0 14 3 29 7 32 7 8
23 9 23 3z m1141 -32 c12 -15 10 -16 -21 -9 -56 12 -71 24 -29 25 22 0 42 -7
50 -16z m-701 -149 c17 -66 49 -167 71 -225 37 -98 145 -498 136 -506 -8 -8
-48 96 -86 226 -80 271 -135 393 -197 435 -29 20 -30 21 -12 40 19 20 48 104
48 138 0 34 7 16 40 -108z m617 111 c13 -12 -12 -26 -47 -26 -34 0 -38 2 -33
21 5 18 11 20 41 16 19 -4 37 -8 39 -11z m-1087 -119 c-17 -57 -22 -39 -14 49
l8 79 9 -44 c6 -31 5 -58 -3 -84z m1025 48 c50 -8 142 -28 205 -45 l115 -30
-80 5 c-81 5 -272 42 -355 68 l-45 15 35 1 c19 0 76 -6 125 -14z m-146 -34
c20 -13 6 -94 -21 -117 l-21 -19 7 49 c3 27 6 59 6 72 0 26 7 29 29 15z m221
-46 c143 -27 130 -21 118 -58 -6 -17 -14 -35 -17 -40 -6 -6 -183 23 -227 38
-19 6 6 86 26 81 8 -3 53 -12 100 -21z m-1390 -33 c0 -37 -154 -184 -257 -246
-33 -19 -5 20 75 104 106 113 182 172 182 142z m1365 -82 c118 -23 154 -34
168 -51 24 -29 21 -55 -8 -84 -24 -25 -55 -33 -55 -16 0 5 -66 21 -146 37
-122 24 -149 32 -161 51 -16 24 -11 54 13 78 20 19 14 20 189 -15z m-236 -78
c7 -13 3 -54 -15 -138 -41 -203 -86 -386 -92 -379 -3 3 -16 47 -28 98 l-22 92
33 36 c38 42 65 110 91 227 10 45 20 82 21 82 1 0 7 -8 12 -18z m-1404 -159
c-82 -76 -241 -203 -328 -262 -118 -78 -511 -310 -551 -325 -17 -6 -18 -5 -4
16 42 65 259 219 532 378 88 51 214 128 280 172 67 43 123 78 126 78 3 -1 -22
-26 -55 -57z"/>
<path d="M2685 3900 c3 -5 8 -10 11 -10 2 0 4 5 4 10 0 6 -5 10 -11 10 -5 0
-7 -4 -4 -10z"/>
<path d="M2720 3900 c0 -5 5 -10 10 -10 6 0 10 5 10 10 0 6 -4 10 -10 10 -5 0
-10 -4 -10 -10z"/>
<path d="M1823 740 c22 -4 52 -20 70 -39 18 -17 37 -31 42 -31 5 0 -10 18 -33
40 -34 33 -48 40 -79 39 l-38 -1 38 -8z"/>
</g>
</svg>
